<svg width="22" height="22" viewBox="0 0 22 22" fill="none" xmlns="http://www.w3.org/2000/svg">
<path d="M11 1.57129C11.8064 1.57129 12.5818 1.8812 13.1661 2.43693C13.7503 2.99266 14.0986 3.75168 14.139 4.557L14.1429 4.71415H18.0715C18.2717 4.71437 18.4643 4.79105 18.61 4.92853C18.7556 5.066 18.8432 5.25389 18.8549 5.45381C18.8667 5.65373 18.8016 5.85059 18.6731 6.00416C18.5446 6.15773 18.3622 6.25642 18.1634 6.28007L18.0715 6.28557H17.4044L16.4772 17.7201C16.4174 18.4579 16.0821 19.1462 15.5379 19.648C14.9937 20.1499 14.2805 20.4285 13.5402 20.4284H8.45981C7.71955 20.4285 7.00639 20.1499 6.46219 19.648C5.91799 19.1462 5.58263 18.4579 5.52281 17.7201L4.59488 6.28557H3.9286C3.73615 6.28555 3.5504 6.21489 3.40659 6.08701C3.26278 5.95913 3.1709 5.78291 3.14838 5.59179L3.14288 5.49986C3.14291 5.30741 3.21356 5.12167 3.34145 4.97785C3.46933 4.83404 3.64554 4.74216 3.83667 4.71965L3.9286 4.71415H7.85717C7.85717 3.88061 8.18829 3.08121 8.77769 2.49181C9.36709 1.90241 10.1665 1.57129 11 1.57129ZM9.23217 8.83915C9.08977 8.83915 8.95219 8.89072 8.84487 8.98432C8.73755 9.07792 8.66775 9.20721 8.64838 9.34829L8.64288 9.42843V15.7141L8.64838 15.7943C8.66779 15.9353 8.7376 16.0646 8.84492 16.1581C8.95224 16.2517 9.0898 16.3032 9.23217 16.3032C9.37454 16.3032 9.5121 16.2517 9.61942 16.1581C9.72673 16.0646 9.79655 15.9353 9.81595 15.7943L9.82145 15.7141V9.42843L9.81595 9.34829C9.79659 9.20721 9.72679 9.07792 9.61947 8.98432C9.51215 8.89072 9.37457 8.83915 9.23217 8.83915ZM12.7679 8.83915C12.6255 8.83915 12.4879 8.89072 12.3806 8.98432C12.2733 9.07792 12.2035 9.20721 12.1841 9.34829L12.1786 9.42843V15.7141L12.1841 15.7943C12.2035 15.9353 12.2733 16.0646 12.3806 16.1581C12.4879 16.2517 12.6255 16.3032 12.7679 16.3032C12.9103 16.3032 13.0478 16.2517 13.1551 16.1581C13.2624 16.0646 13.3323 15.9353 13.3517 15.7943L13.3572 15.7141V9.42843L13.3517 9.34829C13.3323 9.20721 13.2625 9.07792 13.1552 8.98432C13.0479 8.89072 12.9103 8.83915 12.7679 8.83915ZM11 3.14272C10.6036 3.14259 10.2217 3.29232 9.93102 3.56189C9.64032 3.83146 9.46226 4.20095 9.43253 4.59629L9.4286 4.71415H12.5715L12.5675 4.59629C12.5378 4.20095 12.3597 3.83146 12.069 3.56189C11.7783 3.29232 11.3965 3.14259 11 3.14272Z" fill="#FF0202"/>
</svg>
